# xmcd
#
# Track frame offsets:
# 187
# 12747
# 24380
# 37727
# 48445
# 67662
# 79050
# 90615
# 99152
# 112165
# 129790
# 147840
# 169872
# 181022
# 194817
# 207577
# 225322
#
# Disc length: 3192 seconds
#
#
# Revision: 2
# Processed by: cddbd v1.5.1PL0 Copyright (c) Steve Scherf et al.
# Submitted via: FreeRIP 2.91 
#
DISCID=d70c7611
DTITLE=Nina Simone - The Blues
DYEAR=1991
DGENRE=Jazz
TTITLE0=Do I Move You?
TTITLE1=Day and Night
TTITLE2=In The Dark
TTITLE3=Real Real
TTITLE4=My Man's Gone Now
TTITLE5=Backlash Blues
TTITLE6=I Want a Little Sugar In My Bowl
TTITLE7=Buck
TTITLE8=Since I Fell For You
TTITLE9=The House of the Rising Sun
TTITLE10=Blues For Mama
TTITLE11=The Pusher
TTITLE12=Turn Me On
TTITLE13=Nobody's Fault But Mine
TTITLE14=Go To Hell
TTITLE15=I Shall Be Released
TTITLE16=Gin House Blues
EXTD=
EXTT0=
EXTT1=
EXTT2=
EXTT3=
EXTT4=
EXTT5=
EXTT6=
EXTT7=
EXTT8=
EXTT9=
EXTT10=
EXTT11=
EXTT12=
EXTT13=
EXTT14=
EXTT15=
EXTT16=
PLAYORDER=
